<svg width="43" height="43" fill="none" xmlns="http://www.w3.org/2000/svg"><path d="M43 12.77v.151c0 1.782 0 2.675-.445 3.405s-1.256 1.162-2.872 2.03l-1.705.912c1.173-3.83 1.567-7.945 1.711-11.463l.022-.458.004-.108c1.4.468 2.186.818 2.676 1.473.609.815.609 1.896.609 4.058Zm-43 0v.151c0 1.782 0 2.675.445 3.405s1.256 1.162 2.872 2.03l1.708.912c-1.177-3.83-1.57-7.945-1.714-11.463l-.022-.458-.002-.108C1.886 7.707 1.1 8.057.608 8.712 0 9.527 0 10.61 0 12.77Z" fill="#5B4E72"/><path fill-rule="evenodd" clip-rule="evenodd" d="M30.91.72A58.783 58.783 0 0 0 21.5 0c-3.833 0-6.994.326-9.41.72-2.45.397-3.673.596-4.696 1.81-1.021 1.215-.968 2.527-.86 5.15.372 9.01 2.389 20.267 13.354 21.262v7.323h-3.075a2.2 2.2 0 0 0-1.362.47 2.06 2.06 0 0 0-.745 1.196l-.409 1.96H8.6a1.64 1.64 0 0 0-1.14.456 1.526 1.526 0 0 0-.472 1.099c0 .412.17.807.472 1.099.302.291.712.455 1.14.455h25.8c.428 0 .838-.164 1.14-.455.303-.292.473-.687.473-1.1 0-.411-.17-.807-.473-1.098a1.644 1.644 0 0 0-1.14-.455h-5.697l-.409-1.96a2.06 2.06 0 0 0-.745-1.197 2.2 2.2 0 0 0-1.362-.47h-3.075v-7.323c10.966-.995 12.984-12.25 13.354-21.262.108-2.623.164-3.937-.86-5.15-1.023-1.214-2.247-1.413-4.695-1.81Zm-7.718 7.17c.295.117.547.316.724.572.177.256.272.556.271.864v8.289c0 .412-.17.807-.472 1.099a1.644 1.644 0 0 1-1.14.455c-.428 0-.838-.164-1.14-.455a1.526 1.526 0 0 1-.473-1.1v-4.538l-.473.456a1.612 1.612 0 0 1-.523.36 1.665 1.665 0 0 1-1.796-.32 1.55 1.55 0 0 1-.355-.517 1.503 1.503 0 0 1 .022-1.215 1.56 1.56 0 0 1 .373-.504l3.226-3.109a1.663 1.663 0 0 1 1.756-.337Z" fill="#5B4E72"/></svg>