<svg width="43" height="43" fill="none" xmlns="http://www.w3.org/2000/svg"><path d="M33.077 3.36c-.91 0-1.654.742-1.654 1.653v7.908L22.69 4.186a1.7 1.7 0 0 0-2.378 0L.931 23.62a1.638 1.638 0 0 0 0 2.326 1.637 1.637 0 0 0 2.325 0L21.5 7.7l18.296 18.295c.323.323.762.517 1.188.517.427 0 .814-.194 1.137-.517a1.638 1.638 0 0 0 0-2.325l-5.736-5.737V5.014c0-.912-.743-1.655-1.654-1.655h-1.654ZM21.5 10.75 3.308 28.942v9.096A4.963 4.963 0 0 0 8.269 43h26.462a4.963 4.963 0 0 0 4.961-4.962v-9.096L21.5 10.75Zm-3.308 15.712h6.616c.91 0 1.654.742 1.654 1.653v9.924c0 .91-.743 1.653-1.654 1.653h-6.616c-.91 0-1.654-.743-1.654-1.654v-9.923c0-.91.743-1.653 1.654-1.653Z" fill="#EA5F1F"/></svg>