<svg width="32" height="41" fill="none" xmlns="http://www.w3.org/2000/svg"><path d="M21.304 27.721a13.513 13.513 0 1 0-11.583 0v5.16h11.583v-5.16Z" fill="#D7E0FF"/><path d="M11.033 38.256h8.958m-4.48-27.77V6.902m0 17.917v-3.583m5.793 6.485a13.513 13.513 0 1 0-11.583 0v5.16h11.583v-5.16Z" stroke="#5B4E72" stroke-width="4"/><path d="M19.543 13.173v-.896a1.792 1.792 0 0 0-1.792-1.791h-4.479a1.792 1.792 0 0 0-1.791 1.791v.803a1.792 1.792 0 0 0 1.402 1.749l5.257 1.168a1.791 1.791 0 0 1 1.403 1.748v1.699a1.792 1.792 0 0 1-1.792 1.792h-4.479a1.792 1.792 0 0 1-1.791-1.792v-.896" stroke="#5B4E72" stroke-width="4"/></svg>