<svg width="43" height="40" fill="none" xmlns="http://www.w3.org/2000/svg"><path d="M32.631 0c-.91 0-1.654.743-1.654 1.654V9.56L22.243.827a1.7 1.7 0 0 0-2.377 0L.485 20.26a1.638 1.638 0 0 0 0 2.325c.646.646 1.68.646 2.325 0L21.054 4.341 39.35 22.637c.323.323.762.517 1.189.517.426 0 .814-.194 1.137-.517a1.638 1.638 0 0 0 0-2.326l-5.737-5.736V1.654C35.939.743 35.196 0 34.285 0h-1.654ZM21.054 7.39 2.862 25.584v9.096a4.963 4.963 0 0 0 4.961 4.962h26.462a4.963 4.963 0 0 0 4.962-4.962v-9.096L21.053 7.39Zm-3.307 15.712h6.615c.91 0 1.654.743 1.654 1.654v9.923c0 .911-.743 1.654-1.654 1.654h-6.615a1.657 1.657 0 0 1-1.654-1.654v-9.923c0-.91.743-1.654 1.654-1.654Z" fill="#EA5F1F"/></svg>